<svg width="532" height="580" viewBox="0 0 532 580" fill="none" xmlns="http://www.w3.org/2000/svg">
<path d="M437.89 579.262C489.784 579.262 531.852 537.194 531.852 485.3C531.852 433.406 489.784 391.338 437.89 391.338C385.996 391.338 343.928 433.406 343.928 485.3C343.928 537.194 385.996 579.262 437.89 579.262Z" fill="url(#paint0_radial)"/>
<path d="M440.38 412.973C466.457 424.606 476.068 456.244 461.841 483.631C447.616 511.022 414.943 523.793 388.864 512.158C362.787 500.523 353.177 468.887 367.403 441.494C381.628 414.107 414.302 401.336 440.38 412.973Z" fill="white"/>
<path d="M458.444 427.178C453.875 421.198 447.795 416.278 440.384 412.969C414.304 401.338 381.624 414.108 367.404 441.498C353.175 468.889 362.784 500.527 388.864 512.158C392.085 513.597 395.404 514.658 398.774 515.367L398.045 516.457L0.64502 465.957L343.905 0.187012L458.444 427.178Z" fill="url(#paint1_radial)"/>
<defs>
<radialGradient id="paint0_radial" cx="0" cy="0" r="1" gradientUnits="userSpaceOnUse" gradientTransform="translate(372.549 437.98) scale(591.213 591.213)">
<stop stop-color="#53FFFF"/>
<stop offset="0.1292" stop-color="#34C7DC"/>
<stop offset="0.2823" stop-color="#118BB6"/>
<stop offset="0.3555" stop-color="#0473A7"/>
<stop offset="0.4186" stop-color="#05608F"/>
<stop offset="0.5494" stop-color="#063E65"/>
<stop offset="0.6763" stop-color="#072443"/>
<stop offset="0.7966" stop-color="#07112B"/>
<stop offset="0.9074" stop-color="#08051C"/>
<stop offset="1" stop-color="#080117"/>
</radialGradient>
<radialGradient id="paint1_radial" cx="0" cy="0" r="1" gradientUnits="userSpaceOnUse" gradientTransform="translate(529.841 621.385) scale(462.571 462.571)">
<stop stop-color="#00FFFF"/>
<stop offset="0.1169" stop-color="#2CFFFF" stop-opacity="0.8831"/>
<stop offset="0.2995" stop-color="#6CFFFF" stop-opacity="0.7005"/>
<stop offset="0.4744" stop-color="#A0FFFF" stop-opacity="0.5256"/>
<stop offset="0.6364" stop-color="#C9FFFF" stop-opacity="0.3636"/>
<stop offset="0.783" stop-color="#E7FFFF" stop-opacity="0.217"/>
<stop offset="0.909" stop-color="#F9FFFF" stop-opacity="0.091"/>
<stop offset="1" stop-color="white" stop-opacity="0"/>
</radialGradient>
</defs>
</svg>
