<svg width="3840" height="1255" viewBox="0 0 3840 1255" fill="none" xmlns="http://www.w3.org/2000/svg" preserveAspectRatio="none">
<path d="M3840 810.77L3573.5 879.77L3528 859.27L3470 869.27L3430.13 854.82L3840 727.77V810.77Z" fill="url(#paint0_radial)"/>
<path opacity="0.7" d="M3272.28 853.9L3366.8 959.17L3384.1 955.95L3427.35 824.15L3272.28 853.9Z" fill="url(#paint1_linear)"/>
<path d="M3013.12 925.37L3149.54 1077.3L3174.49 1072.65L3236.92 882.43L3013.12 925.37Z" fill="url(#paint2_linear)"/>
<path opacity="0.3" d="M1139.43 1132.94L1183.01 1197.91L1192.73 1197.48L1226.63 1128.68L1139.43 1132.94Z" fill="url(#paint3_linear)"/>
<path opacity="0.7" d="M440.925 1129.93L509.439 1253.71L527.013 1254.45L598.713 1135.7L440.925 1129.93Z" fill="url(#paint4_linear)"/>
<path opacity="0.5" d="M293.902 1107.27L345.814 1201.06L359.13 1201.61L413.456 1111.64L293.902 1107.27Z" fill="url(#paint5_linear)"/>
<path d="M3840 748.33C2951.2 1003.28 1931.9 1148.17 848.275 1148.17C560.691 1148.17 277.636 1137.98 0.339844 1118.22V128.89H2434.05L2646.77 0.669922H3839.99L3840 748.33Z" fill="url(#paint6_linear)"/>
<defs>
<radialGradient id="paint0_radial" cx="0" cy="0" r="1" gradientUnits="userSpaceOnUse" gradientTransform="translate(3916.66 1075.12) scale(231.562)">
<stop stop-color="#53FFFF"/>
<stop offset="0.1292" stop-color="#34C7DC"/>
<stop offset="0.2823" stop-color="#118BB6"/>
<stop offset="0.3555" stop-color="#0473A7"/>
<stop offset="0.4186" stop-color="#05608F"/>
<stop offset="0.5494" stop-color="#063E65"/>
<stop offset="0.6763" stop-color="#072443"/>
<stop offset="0.7966" stop-color="#07112B"/>
<stop offset="0.9074" stop-color="#08051C"/>
<stop offset="1" stop-color="#080117"/>
</radialGradient>
<linearGradient id="paint1_linear" x1="3347.49" y1="881.75" x2="3406.64" y2="-205.93" gradientUnits="userSpaceOnUse">
<stop stop-color="#003250"/>
<stop offset="1" stop-color="#080117"/>
</linearGradient>
<linearGradient id="paint2_linear" x1="3125.02" y1="1104.45" x2="3125.02" y2="-1147.43" gradientUnits="userSpaceOnUse">
<stop stop-color="#003250"/>
<stop offset="1" stop-color="#080117"/>
</linearGradient>
<linearGradient id="paint3_linear" x1="1227.07" y1="907.9" x2="1438.17" y2="-160.72" gradientUnits="userSpaceOnUse">
<stop stop-color="#003250"/>
<stop offset="1" stop-color="#080117"/>
</linearGradient>
<linearGradient id="paint4_linear" x1="633.331" y1="738.76" x2="934.851" y2="-307.953" gradientUnits="userSpaceOnUse">
<stop stop-color="#003250"/>
<stop offset="1" stop-color="#080117"/>
</linearGradient>
<linearGradient id="paint5_linear" x1="473.708" y1="692.78" x2="775.232" y2="-353.949" gradientUnits="userSpaceOnUse">
<stop stop-color="#003250"/>
<stop offset="1" stop-color="#080117"/>
</linearGradient>
<linearGradient id="paint6_linear" x1="1920.17" y1="-240.05" x2="1920.17" y2="1585.02" gradientUnits="userSpaceOnUse">
<stop stop-color="#00233C"/>
<stop offset="1" stop-color="#080117"/>
</linearGradient>
</defs>
</svg>
