<svg width="701" height="650" viewBox="0 0 701 650" fill="none" xmlns="http://www.w3.org/2000/svg">
<path d="M105.269 649.252C163.114 649.252 210.007 602.359 210.007 544.514C210.007 486.669 163.114 439.776 105.269 439.776C47.4238 439.776 0.531006 486.669 0.531006 544.514C0.531006 602.359 47.4238 649.252 105.269 649.252Z" fill="url(#paint0_radial)"/>
<path d="M127.558 526.059C146.652 552.208 174.255 564.552 189.212 553.631C204.169 542.709 200.816 512.658 181.722 486.509C162.628 460.359 135.025 448.015 120.068 458.936C105.111 469.858 108.464 499.909 127.558 526.059Z" fill="white"/>
<path d="M181.705 486.527C165.455 464.277 143.045 452.017 127.505 455.588L348.605 0.558105L700.455 483.568L189.195 553.648C204.155 542.729 200.794 512.678 181.705 486.527Z" fill="url(#paint1_radial)"/>
<defs>
<radialGradient id="paint0_radial" cx="0" cy="0" r="1" gradientUnits="userSpaceOnUse" gradientTransform="translate(192.662 492.37) scale(822.428 822.428)">
<stop stop-color="#53FFFF"/>
<stop offset="0.1292" stop-color="#34C7DC"/>
<stop offset="0.2823" stop-color="#118BB6"/>
<stop offset="0.3555" stop-color="#0473A7"/>
<stop offset="0.4186" stop-color="#05608F"/>
<stop offset="0.5494" stop-color="#063E65"/>
<stop offset="0.6763" stop-color="#072443"/>
<stop offset="0.7966" stop-color="#07112B"/>
<stop offset="0.9074" stop-color="#08051C"/>
<stop offset="1" stop-color="#080117"/>
</radialGradient>
<radialGradient id="paint1_radial" cx="0" cy="0" r="1" gradientUnits="userSpaceOnUse" gradientTransform="translate(-146.372 729.394) scale(814.672)">
<stop stop-color="#00FFFF"/>
<stop offset="0.1169" stop-color="#2CFFFF" stop-opacity="0.8831"/>
<stop offset="0.2995" stop-color="#6CFFFF" stop-opacity="0.7005"/>
<stop offset="0.4744" stop-color="#A0FFFF" stop-opacity="0.5256"/>
<stop offset="0.6364" stop-color="#C9FFFF" stop-opacity="0.3636"/>
<stop offset="0.783" stop-color="#E7FFFF" stop-opacity="0.217"/>
<stop offset="0.909" stop-color="#F9FFFF" stop-opacity="0.091"/>
<stop offset="1" stop-color="white" stop-opacity="0"/>
</radialGradient>
</defs>
</svg>
