<svg width="506" height="486" viewBox="0 0 506 486" fill="none" xmlns="http://www.w3.org/2000/svg">
<path d="M411.092 188.816C462.986 188.816 505.055 146.747 505.055 94.853C505.055 42.9587 462.986 0.890015 411.092 0.890015C359.198 0.890015 317.129 42.9587 317.129 94.853C317.129 146.747 359.198 188.816 411.092 188.816Z" fill="url(#paint0_radial)"/>
<path d="M338.982 88.708C351.921 63.253 384.004 55.255 410.636 70.849C437.273 86.441 448.375 119.718 435.435 145.175C422.496 170.63 390.414 178.626 363.778 163.032C337.146 147.443 326.042 114.166 338.982 88.708Z" fill="white"/>
<path d="M435.435 145.177L385.265 485.088L0.284912 147.607L355.605 70.377C348.735 74.729 342.956 80.898 338.985 88.707C326.046 114.168 337.145 147.437 363.775 163.037C390.415 178.626 422.494 170.626 435.435 145.177Z" fill="url(#paint1_radial)"/>
<defs>
<radialGradient id="paint0_radial" cx="0" cy="0" r="1" gradientUnits="userSpaceOnUse" gradientTransform="translate(320.792 224.867) rotate(154.849) scale(485.694)">
<stop stop-color="#53FFFF"/>
<stop offset="0.1292" stop-color="#34C7DC"/>
<stop offset="0.2823" stop-color="#118BB6"/>
<stop offset="0.3555" stop-color="#0473A7"/>
<stop offset="0.4186" stop-color="#05608F"/>
<stop offset="0.5494" stop-color="#063E65"/>
<stop offset="0.6763" stop-color="#072443"/>
<stop offset="0.7966" stop-color="#07112B"/>
<stop offset="0.9074" stop-color="#08051C"/>
<stop offset="1" stop-color="#080117"/>
</radialGradient>
<radialGradient id="paint1_radial" cx="0" cy="0" r="1" gradientUnits="userSpaceOnUse" gradientTransform="translate(579.496 -87.9785) scale(567.51)">
<stop stop-color="#00FFFF"/>
<stop offset="0.1169" stop-color="#2CFFFF" stop-opacity="0.8831"/>
<stop offset="0.2995" stop-color="#6CFFFF" stop-opacity="0.7005"/>
<stop offset="0.4744" stop-color="#A0FFFF" stop-opacity="0.5256"/>
<stop offset="0.6364" stop-color="#C9FFFF" stop-opacity="0.3636"/>
<stop offset="0.783" stop-color="#E7FFFF" stop-opacity="0.217"/>
<stop offset="0.909" stop-color="#F9FFFF" stop-opacity="0.091"/>
<stop offset="1" stop-color="white" stop-opacity="0"/>
</radialGradient>
</defs>
</svg>
