<svg width="1975" height="745" viewBox="0 0 1975 745" fill="none" xmlns="http://www.w3.org/2000/svg">
<path opacity="0.7" d="M1823.65 579.463H1814.11H1680.77H1671.24L1654.04 596.668V703.047L1671.24 720.254H1680.77H1814.11H1823.65L1840.85 703.047V596.668L1823.65 579.463Z" fill="url(#paint0_linear)"/>
<path opacity="0.7" d="M1964.15 638.742H1958.63H1881.43H1875.91L1865.95 648.703V710.291L1875.91 720.254H1881.43H1958.63H1964.15L1974.11 710.291V648.703L1964.15 638.742Z" fill="url(#paint1_linear)"/>
<path d="M427.357 694.92H444.494L399.208 616.496H382.072L427.357 694.92Z" fill="url(#paint2_linear)"/>
<path d="M360.223 696.645L316.703 698.451L433.988 471.777H477.509L360.223 696.645Z" fill="url(#paint3_linear)"/>
<path d="M502.979 734.063L244.876 744.781L277.646 700.068L466.615 692.221L502.979 734.063Z" fill="url(#paint4_linear)"/>
<path d="M1480.45 671.934H1523.97L1408.97 469.631H1365.45L1480.45 671.934Z" fill="url(#paint5_linear)"/>
<path d="M1418.67 671.934H1401.53L1446.81 593.512H1463.95L1418.67 671.934Z" fill="url(#paint6_linear)"/>
<path d="M1339.98 716.021H1598.3L1563.71 671.934H1374.57L1339.98 716.021Z" fill="url(#paint7_linear)"/>
<path d="M1254.42 671.934H1297.94L1182.93 469.631H1139.41L1254.42 671.934Z" fill="url(#paint8_linear)"/>
<path d="M1192.63 671.934H1175.5L1220.78 593.512H1237.92L1192.63 671.934Z" fill="url(#paint9_linear)"/>
<path d="M1113.94 715.25H1372.27L1337.67 671.934H1148.54L1113.94 715.25Z" fill="url(#paint10_linear)"/>
<path d="M1486.72 0.244141V16.3943C1486.72 16.3943 1473.89 21.3041 1343.72 50.9841C1213.55 80.6641 1232.59 114.714 960.154 220.224C922.365 234.863 881.084 247.253 838.014 257.724C832.194 259.144 826.344 260.523 820.464 261.872C629.924 305.513 409.534 313.372 302.204 313.493C263.174 327.333 205.794 336.093 205.794 336.093C231.024 312.054 262.934 303.884 275.404 300.163C381.234 268.612 498.244 208.112 645.314 152.622C654.654 149.102 664.114 145.602 673.704 142.134C709.184 129.263 746.384 116.804 785.564 105.183C1021.67 35.1354 1486.72 0.244141 1486.72 0.244141Z" fill="url(#paint11_linear)"/>
<path d="M1728.18 192.221V278.775L1666.23 292.727L1507.31 328.51L1462.54 142.467L1666.23 180.625L1728.18 192.221Z" fill="url(#paint12_linear)"/>
<path d="M1440.02 136.535H1518.76C1518.76 136.535 1588.24 148.431 1619.38 209.555C1650.52 270.678 1638.95 312.116 1638.95 312.116L1600.03 351.038L1440.02 136.535Z" fill="url(#paint13_linear)"/>
<path d="M1728.18 192.221C1728.18 192.221 1754.4 203.512 1754.4 236.676C1754.4 269.844 1728.18 278.776 1728.18 278.776L1666.23 292.727C1666.23 292.727 1698.34 279.698 1698.34 236.676C1698.34 193.658 1666.23 180.625 1666.23 180.625L1728.18 192.221Z" fill="url(#paint14_linear)"/>
<path d="M29.0673 431.555L933.225 439.555L1647.05 431.555L1688 390.613L1422.18 50.9863L0.237305 384.273L29.0673 431.555Z" fill="url(#paint15_linear)"/>
<path d="M1565.17 0.244141V16.3943C1565.17 16.3943 1552.34 21.3041 1422.17 50.9841C1292 80.6641 1311.04 114.714 1038.6 220.224C1009.46 231.513 978.304 241.404 945.884 250.083C933.004 253.532 919.934 256.782 906.714 259.853C698.374 308.283 452.724 311.583 357.454 310.794C316.574 310.794 254.404 324.743 245.864 326.702C372.744 296.723 566.534 205.073 769.104 135.653C785.914 129.883 802.784 124.272 819.694 118.862C834.454 114.143 849.234 109.573 864.014 105.182C1100.12 35.1351 1565.17 0.244141 1565.17 0.244141Z" fill="url(#paint16_linear)"/>
<path d="M1556.79 472.777H102.805L68.2075 431.555H952.439H1603.49L1556.79 472.777Z" fill="url(#paint17_linear)"/>
<path d="M0.237305 384.273H342.748L388.876 431.555H29.0673L0.237305 384.273Z" fill="url(#paint18_linear)"/>
<path d="M68.2075 431.555H410.719L462.613 472.777H102.805L68.2075 431.555Z" fill="url(#paint19_linear)"/>
<path d="M364.067 696.484L331.298 741.197L244.879 744.787L277.65 700.072L364.067 696.484Z" fill="url(#paint20_linear)"/>
<path d="M1054.81 432.205L1061.58 425.141L992.187 426.045L984.806 433.115L1062.35 515.035L1133.36 515.123L1054.81 432.205Z" fill="url(#paint21_linear)"/>
<path d="M1143.67 513.977L1132.35 515.123L1054.81 432.205L1061.58 425.141L1143.67 513.977Z" fill="url(#paint22_linear)"/>
<path d="M1307.33 428.92L1377.34 428.008L1301.95 511.916L1231.94 512.828L1307.33 428.92Z" fill="url(#paint23_linear)"/>
<path d="M1382.61 434.586L1313.26 511.77L1301.95 511.916L1377.34 428.008L1382.61 434.586Z" fill="url(#paint24_linear)"/>
<path d="M977.453 516.57L981.383 721.08L840.556 723.787L815.084 699.271L812.114 544.75L836.625 519.277L977.453 516.57Z" fill="url(#paint25_linear)"/>
<path d="M1114.25 513.941L1100.4 514.207L943.141 517.229L929.292 517.496L904.78 542.971L907.75 697.492L933.223 722.006L947.072 721.738L1104.33 718.717L1118.18 718.451L1142.69 692.977L1139.72 538.455L1114.25 513.941Z" fill="url(#paint26_linear)"/>
<path d="M1104.41 718.715L984.705 721.016L955.328 694.598L952.439 544.295L979.36 516.533L1100.48 514.205L1104.41 718.715Z" fill="url(#paint27_linear)"/>
<path d="M884.024 565.779L860.418 683.963L832.287 566.773L844.169 566.545L859.38 629.912L872.143 566.006L884.024 565.779Z" fill="url(#paint28_radial)"/>
<path d="M829.577 698.996L855.052 723.508L840.558 723.787L815.083 699.273L812.113 544.746L836.627 519.277L851.121 518.998L826.607 544.469L829.577 698.996Z" fill="url(#paint29_linear)"/>
<path d="M907.75 697.494L933.225 722.006L918.731 722.283L893.256 697.771L890.287 543.244L914.801 517.773L929.294 517.496L904.78 542.967L907.75 697.494Z" fill="url(#paint30_linear)"/>
<path d="M1372.54 511.578V716.125H1513.39L1538.39 691.127V536.576L1513.39 511.578H1372.54Z" fill="url(#paint31_linear)"/>
<path d="M1235.72 511.578H1249.57H1406.86H1420.71L1445.71 536.576V691.127L1420.71 716.125H1406.86H1249.57H1235.72L1210.73 691.127V536.576L1235.72 511.578Z" fill="url(#paint32_linear)"/>
<path d="M1523.89 691.129L1498.9 716.125H1513.39L1538.39 691.129V536.572L1513.39 511.578H1498.9L1523.89 536.572V691.129Z" fill="url(#paint33_linear)"/>
<path d="M1445.71 691.129L1420.71 716.125H1435.21L1460.2 691.129V536.572L1435.21 511.578H1420.71L1445.71 536.572V691.129Z" fill="url(#paint34_linear)"/>
<path d="M1188.69 513.391L1191.35 717.922L1050.51 719.754L1025.19 695.082L1023.18 540.545L1047.85 515.223L1188.69 513.391Z" fill="url(#paint35_linear)"/>
<path d="M1325.5 511.611L1311.65 511.791L1154.38 513.838L1140.53 514.018L1115.86 539.338L1117.87 693.877L1143.19 718.547L1157.04 718.367L1314.31 716.32L1328.16 716.141L1352.83 690.82L1350.82 536.281L1325.5 511.611Z" fill="url(#paint36_linear)"/>
<path d="M1314.39 716.32L1165.81 718.254L1163.15 513.723L1311.73 511.789L1314.39 716.32Z" fill="url(#paint37_linear)"/>
<path d="M1295.68 559.406L1238.14 677.873L1177.53 560.943L1204.67 560.592L1237.44 623.818L1268.55 559.76L1295.68 559.406Z" fill="#00FEFF"/>
<path d="M1314.39 716.32L1304.61 716.447L1301.95 511.916L1311.73 511.789L1314.39 716.32Z" fill="url(#paint38_linear)"/>
<path d="M1039.69 694.896L1065.01 719.564L1050.51 719.754L1025.19 695.086L1023.18 540.541L1047.85 515.223L1062.35 515.035L1037.68 540.352L1039.69 694.896Z" fill="url(#paint39_linear)"/>
<path d="M1117.87 693.879L1143.19 718.547L1128.69 718.736L1103.37 694.066L1101.36 539.523L1126.03 514.205L1140.53 514.018L1115.86 539.336L1117.87 693.879Z" fill="url(#paint40_linear)"/>
<path opacity="0.5" d="M1301.95 511.916L1377.34 428.008L1742.31 1.45312H541.187L992.188 426.045L1061.58 425.141L1143.67 513.977L1301.95 511.916Z" fill="url(#paint41_radial)"/>
<path d="M1224.75 491.154C1225.52 491.154 1226.14 490.529 1226.14 489.758C1226.14 488.987 1225.52 488.362 1224.75 488.362C1223.97 488.362 1223.35 488.987 1223.35 489.758C1223.35 490.529 1223.97 491.154 1224.75 491.154Z" fill="white"/>
<path d="M1194.17 459.468C1194.79 459.468 1195.29 458.966 1195.29 458.346C1195.29 457.727 1194.79 457.224 1194.17 457.224C1193.55 457.224 1193.05 457.727 1193.05 458.346C1193.05 458.966 1193.55 459.468 1194.17 459.468Z" fill="white"/>
<path d="M1234.6 417.581C1235.68 417.581 1236.55 416.706 1236.55 415.627C1236.55 414.548 1235.68 413.673 1234.6 413.673C1233.52 413.673 1232.64 414.548 1232.64 415.627C1232.64 416.706 1233.52 417.581 1234.6 417.581Z" fill="white"/>
<path opacity="0.2" d="M1246.68 322.228C1247.45 322.228 1248.07 321.603 1248.07 320.832C1248.07 320.061 1247.45 319.436 1246.68 319.436C1245.91 319.436 1245.28 320.061 1245.28 320.832C1245.28 321.603 1245.91 322.228 1246.68 322.228Z" fill="white"/>
<path opacity="0.3" d="M1074.52 360.484C1075.29 360.484 1075.91 359.859 1075.91 359.088C1075.91 358.317 1075.29 357.692 1074.52 357.692C1073.75 357.692 1073.12 358.317 1073.12 359.088C1073.12 359.859 1073.75 360.484 1074.52 360.484Z" fill="white"/>
<path opacity="0.6" d="M1565.17 0.244141V6.75415C1423.52 19.8152 1117.16 52.5843 939.874 105.184C925.094 109.575 910.314 114.145 895.554 118.864C878.644 124.274 861.774 129.885 844.964 135.655C670.514 195.434 502.574 271.704 378.274 310.885C370.714 310.885 363.754 310.854 357.454 310.795C317.214 310.795 256.344 324.315 246.304 326.604C373.194 296.514 566.764 204.995 769.104 135.655C785.914 129.885 802.784 124.274 819.694 118.864C834.454 114.145 849.234 109.575 864.014 105.184C1100.12 35.1353 1565.17 0.244141 1565.17 0.244141Z" fill="url(#paint42_radial)"/>
<path opacity="0.6" d="M1368.1 61.27C1258.08 77.256 1146.02 97.624 1062.56 122.385C1047.78 126.776 1033 131.346 1018.24 136.065C1001.33 141.475 984.459 147.086 967.649 152.856C793.199 212.635 625.259 288.905 500.959 328.086C493.399 328.086 486.439 328.055 480.139 327.996C439.899 327.996 379.029 341.516 368.989 343.805C495.879 313.715 689.449 222.196 891.789 152.856C908.599 147.086 925.469 141.475 942.379 136.065C957.139 131.346 971.919 126.776 986.699 122.385C1090.72 91.526 1239.17 67.489 1372.71 50.252C1424.66 36.521 1382.66 54.521 1368.1 61.27Z" fill="url(#paint43_radial)"/>
<path d="M1132.71 181.824C1122.73 186.144 1112.18 190.613 1101.02 195.244C1096.5 187.465 1090.72 178.433 1083.55 168.885C1058.8 135.914 1017.56 96.8242 954.974 82.0842C940.734 78.7252 919.682 76.9793 897.807 79.4163C880.04 81.3963 856.744 86.4792 856.744 86.4792C856.744 86.4792 872.244 75.3542 905.026 69.1042C939.481 62.5362 959.077 64.0203 969.347 65.6863C994.437 69.7563 1058.68 79.7273 1114.53 154.485C1120.75 162.795 1126.83 171.885 1132.71 181.824Z" fill="url(#paint44_linear)"/>
<defs>
<linearGradient id="paint0_linear" x1="1747.44" y1="1337.15" x2="1747.44" y2="1547.69" gradientUnits="userSpaceOnUse">
<stop stop-color="#1E3250"/>
<stop offset="1" stop-color="#080117"/>
</linearGradient>
<linearGradient id="paint1_linear" x1="1920.03" y1="1337.16" x2="1920.03" y2="1547.71" gradientUnits="userSpaceOnUse">
<stop stop-color="#1E3250"/>
<stop offset="1" stop-color="#080117"/>
</linearGradient>
<linearGradient id="paint2_linear" x1="413.283" y1="1114.21" x2="413.283" y2="-153.03" gradientUnits="userSpaceOnUse">
<stop stop-color="#1E3250"/>
<stop offset="1" stop-color="#080117"/>
</linearGradient>
<linearGradient id="paint3_linear" x1="397.106" y1="1175.66" x2="397.106" y2="-266.644" gradientUnits="userSpaceOnUse">
<stop stop-color="#1E3250"/>
<stop offset="1" stop-color="#080117"/>
</linearGradient>
<linearGradient id="paint4_linear" x1="355" y1="283.717" x2="422.15" y2="1900.35" gradientUnits="userSpaceOnUse">
<stop stop-color="#1E3250"/>
<stop offset="1" stop-color="#080117"/>
</linearGradient>
<linearGradient id="paint5_linear" x1="1444.71" y1="762.834" x2="1444.71" y2="-24.6087" gradientUnits="userSpaceOnUse">
<stop stop-color="#1E3250"/>
<stop offset="1" stop-color="#080117"/>
</linearGradient>
<linearGradient id="paint6_linear" x1="1432.74" y1="802.543" x2="1432.74" y2="866.111" gradientUnits="userSpaceOnUse">
<stop stop-color="#1E3250"/>
<stop offset="1" stop-color="#080117"/>
</linearGradient>
<linearGradient id="paint7_linear" x1="1469.14" y1="251.804" x2="1469.14" y2="1898.63" gradientUnits="userSpaceOnUse">
<stop stop-color="#1E3250"/>
<stop offset="1" stop-color="#080117"/>
</linearGradient>
<linearGradient id="paint8_linear" x1="1218.67" y1="-603.116" x2="1218.67" y2="1935.22" gradientUnits="userSpaceOnUse">
<stop stop-color="#1E3250"/>
<stop offset="1" stop-color="#080117"/>
</linearGradient>
<linearGradient id="paint9_linear" x1="1206.71" y1="-583.281" x2="1206.71" y2="1915.56" gradientUnits="userSpaceOnUse">
<stop stop-color="#1E3250"/>
<stop offset="1" stop-color="#080117"/>
</linearGradient>
<linearGradient id="paint10_linear" x1="1243.11" y1="-894.696" x2="1243.11" y2="1604.21" gradientUnits="userSpaceOnUse">
<stop stop-color="#1E3250"/>
<stop offset="1" stop-color="#080117"/>
</linearGradient>
<linearGradient id="paint11_linear" x1="846.26" y1="837.652" x2="846.26" y2="714.357" gradientUnits="userSpaceOnUse">
<stop stop-color="#1E3250"/>
<stop offset="1" stop-color="#080117"/>
</linearGradient>
<linearGradient id="paint12_linear" x1="1838.65" y1="5.55401" x2="283.435" y2="1316.42" gradientUnits="userSpaceOnUse">
<stop stop-color="#1E3250"/>
<stop offset="1" stop-color="#080117"/>
</linearGradient>
<linearGradient id="paint13_linear" x1="-71.5918" y1="243.786" x2="3093.88" y2="243.786" gradientUnits="userSpaceOnUse">
<stop stop-color="#1E3250"/>
<stop offset="1" stop-color="#080117"/>
</linearGradient>
<linearGradient id="paint14_linear" x1="2020.7" y1="-41.6837" x2="1318.43" y2="550.253" gradientUnits="userSpaceOnUse">
<stop stop-color="#1E3250"/>
<stop offset="1" stop-color="#080117"/>
</linearGradient>
<linearGradient id="paint15_linear" x1="2316.65" y1="245.271" x2="-1634.83" y2="245.27" gradientUnits="userSpaceOnUse">
<stop stop-color="#1E3250"/>
<stop offset="1" stop-color="#080117"/>
</linearGradient>
<linearGradient id="paint16_linear" x1="905.519" y1="871.851" x2="905.519" y2="692.943" gradientUnits="userSpaceOnUse">
<stop stop-color="#1E3250"/>
<stop offset="1" stop-color="#080117"/>
</linearGradient>
<linearGradient id="paint17_linear" x1="4155.17" y1="-2365.33" x2="-2957.18" y2="3629.53" gradientUnits="userSpaceOnUse">
<stop stop-color="#1E3250"/>
<stop offset="1" stop-color="#080117"/>
</linearGradient>
<linearGradient id="paint18_linear" x1="1444.79" y1="-645.885" x2="-221.891" y2="758.933" gradientUnits="userSpaceOnUse">
<stop stop-color="#1E3250"/>
<stop offset="1" stop-color="#080117"/>
</linearGradient>
<linearGradient id="paint19_linear" x1="1353" y1="-464.546" x2="-313.691" y2="940.273" gradientUnits="userSpaceOnUse">
<stop stop-color="#1E3250"/>
<stop offset="1" stop-color="#080117"/>
</linearGradient>
<linearGradient id="paint20_linear" x1="275.197" y1="15.7842" x2="342.348" y2="1632.42" gradientUnits="userSpaceOnUse">
<stop stop-color="#1E3250"/>
<stop offset="1" stop-color="#080117"/>
</linearGradient>
<linearGradient id="paint21_linear" x1="1512.92" y1="464.731" x2="882.168" y2="472.932" gradientUnits="userSpaceOnUse">
<stop stop-color="#1E3250"/>
<stop offset="1" stop-color="#080117"/>
</linearGradient>
<linearGradient id="paint22_linear" x1="1197.46" y1="468.826" x2="822.014" y2="473.707" gradientUnits="userSpaceOnUse">
<stop stop-color="#1E3250"/>
<stop offset="1" stop-color="#080117"/>
</linearGradient>
<linearGradient id="paint23_linear" x1="1305.8" y1="559.213" x2="1302.48" y2="304.367" gradientUnits="userSpaceOnUse">
<stop stop-color="#1E3250"/>
<stop offset="1" stop-color="#080117"/>
</linearGradient>
<linearGradient id="paint24_linear" x1="1342.47" y1="488.039" x2="1339.16" y2="233.195" gradientUnits="userSpaceOnUse">
<stop stop-color="#1E3250"/>
<stop offset="1" stop-color="#080117"/>
</linearGradient>
<linearGradient id="paint25_linear" x1="1300.66" y1="612.658" x2="674.19" y2="624.688" gradientUnits="userSpaceOnUse">
<stop stop-color="#1E3250"/>
<stop offset="1" stop-color="#080117"/>
</linearGradient>
<linearGradient id="paint26_linear" x1="674.869" y1="624.672" x2="1277.56" y2="613.098" gradientUnits="userSpaceOnUse">
<stop stop-color="#1E3250"/>
<stop offset="1" stop-color="#080117"/>
</linearGradient>
<linearGradient id="paint27_linear" x1="775.319" y1="622.743" x2="1052.54" y2="617.419" gradientUnits="userSpaceOnUse">
<stop stop-color="#1E3250"/>
<stop offset="1" stop-color="#080117"/>
</linearGradient>
<radialGradient id="paint28_radial" cx="0" cy="0" r="1" gradientUnits="userSpaceOnUse" gradientTransform="translate(859.286 625.119) rotate(-1.10016) scale(390.48 390.479)">
<stop stop-color="#005A75"/>
<stop offset="1" stop-color="#080117"/>
</radialGradient>
<linearGradient id="paint29_linear" x1="1228.21" y1="614.049" x2="606.38" y2="625.99" gradientUnits="userSpaceOnUse">
<stop stop-color="#1E3250"/>
<stop offset="1" stop-color="#080117"/>
</linearGradient>
<linearGradient id="paint30_linear" x1="1228.2" y1="614.048" x2="606.378" y2="625.989" gradientUnits="userSpaceOnUse">
<stop stop-color="#1E3250"/>
<stop offset="1" stop-color="#080117"/>
</linearGradient>
<linearGradient id="paint31_linear" x1="1051.25" y1="613.853" x2="1677.82" y2="613.853" gradientUnits="userSpaceOnUse">
<stop stop-color="#1E3250"/>
<stop offset="1" stop-color="#080117"/>
</linearGradient>
<linearGradient id="paint32_linear" x1="1677.14" y1="613.852" x2="1074.35" y2="613.852" gradientUnits="userSpaceOnUse">
<stop stop-color="#1E3250"/>
<stop offset="1" stop-color="#080117"/>
</linearGradient>
<linearGradient id="paint33_linear" x1="1171.88" y1="613.853" x2="1751.07" y2="613.853" gradientUnits="userSpaceOnUse">
<stop stop-color="#1E3250"/>
<stop offset="1" stop-color="#080117"/>
</linearGradient>
<linearGradient id="paint34_linear" x1="1171.89" y1="613.853" x2="1751.06" y2="613.853" gradientUnits="userSpaceOnUse">
<stop stop-color="#1E3250"/>
<stop offset="1" stop-color="#080117"/>
</linearGradient>
<linearGradient id="paint35_linear" x1="1511.29" y1="611.48" x2="884.767" y2="619.626" gradientUnits="userSpaceOnUse">
<stop stop-color="#1E3250"/>
<stop offset="1" stop-color="#080117"/>
</linearGradient>
<linearGradient id="paint36_linear" x1="1232.37" y1="463.262" x2="1241.34" y2="1153.18" gradientUnits="userSpaceOnUse">
<stop stop-color="#1E3250"/>
<stop offset="1" stop-color="#080117"/>
</linearGradient>
<linearGradient id="paint37_linear" x1="1235.23" y1="342.716" x2="1244.2" y2="1032.64" gradientUnits="userSpaceOnUse">
<stop stop-color="#1E3250"/>
<stop offset="1" stop-color="#080117"/>
</linearGradient>
<linearGradient id="paint38_linear" x1="1303.53" y1="257.019" x2="1312.5" y2="946.94" gradientUnits="userSpaceOnUse">
<stop stop-color="#1E3250"/>
<stop offset="1" stop-color="#080117"/>
</linearGradient>
<linearGradient id="paint39_linear" x1="1438.82" y1="612.423" x2="816.959" y2="620.508" gradientUnits="userSpaceOnUse">
<stop stop-color="#1E3250"/>
<stop offset="1" stop-color="#080117"/>
</linearGradient>
<linearGradient id="paint40_linear" x1="1438.83" y1="612.422" x2="816.946" y2="620.507" gradientUnits="userSpaceOnUse">
<stop stop-color="#1E3250"/>
<stop offset="1" stop-color="#080117"/>
</linearGradient>
<radialGradient id="paint41_radial" cx="0" cy="0" r="1" gradientUnits="userSpaceOnUse" gradientTransform="translate(1207.83 530.791) scale(466.095 466.096)">
<stop stop-color="white"/>
<stop offset="0.1169" stop-color="#D3FFFF" stop-opacity="0.8831"/>
<stop offset="0.2995" stop-color="#93FFFF" stop-opacity="0.7005"/>
<stop offset="0.4744" stop-color="#5FFFFF" stop-opacity="0.5256"/>
<stop offset="0.6364" stop-color="#36FFFF" stop-opacity="0.3636"/>
<stop offset="0.783" stop-color="#18FFFF" stop-opacity="0.217"/>
<stop offset="0.909" stop-color="#06FFFF" stop-opacity="0.091"/>
<stop offset="1" stop-color="#00FFFF" stop-opacity="0"/>
</radialGradient>
<radialGradient id="paint42_radial" cx="0" cy="0" r="1" gradientUnits="userSpaceOnUse" gradientTransform="translate(921.994 -268.144) scale(640.764 640.764)">
<stop stop-color="#39FFDA"/>
<stop offset="0.1087" stop-color="#27D4CA"/>
<stop offset="0.2758" stop-color="#0E98B2"/>
<stop offset="0.3555" stop-color="#0480A9"/>
<stop offset="0.4233" stop-color="#056A8F"/>
<stop offset="0.5531" stop-color="#064465"/>
<stop offset="0.6789" stop-color="#072743"/>
<stop offset="0.7982" stop-color="#07122B"/>
<stop offset="0.9082" stop-color="#08051C"/>
<stop offset="1" stop-color="#080117"/>
</radialGradient>
<radialGradient id="paint43_radial" cx="0" cy="0" r="1" gradientUnits="userSpaceOnUse" gradientTransform="translate(921.995 -268.147) scale(640.766)">
<stop stop-color="#39FFDA"/>
<stop offset="0.1087" stop-color="#27D4CA"/>
<stop offset="0.2758" stop-color="#0E98B2"/>
<stop offset="0.3555" stop-color="#0480A9"/>
<stop offset="0.4233" stop-color="#056A8F"/>
<stop offset="0.5531" stop-color="#064465"/>
<stop offset="0.6789" stop-color="#072743"/>
<stop offset="0.7982" stop-color="#07122B"/>
<stop offset="0.9082" stop-color="#08051C"/>
<stop offset="1" stop-color="#080117"/>
</radialGradient>
<linearGradient id="paint44_linear" x1="953.892" y1="180.277" x2="487.851" y2="706.649" gradientUnits="userSpaceOnUse">
<stop stop-color="#1E3250"/>
<stop offset="1" stop-color="#080117"/>
</linearGradient>
</defs>
</svg>
