<svg width="1601" height="1380" viewBox="0 0 1601 1380" fill="none" xmlns="http://www.w3.org/2000/svg">
<path d="M0.427002 850.794L368.715 800.794V95.816L0.427002 0.710022V850.794Z" fill="url(#paint0_radial)"/>
<path d="M25.603 823.316L189.986 801.433V383.671L25.603 381.458V823.316Z" fill="url(#paint1_radial)"/>
<path d="M211.603 796.316L348.986 780.433V384.671L211.603 383.458V796.316Z" fill="url(#paint2_radial)"/>
<path d="M27.042 360.152L349.282 367.351V114.863L27.042 36.9821V360.152Z" fill="url(#paint3_radial)"/>
<path d="M1600.18 850.794L1231.9 800.794V95.816L1600.18 0.710022V850.794Z" fill="url(#paint4_radial)"/>
<path d="M1581.16 714.794L1250.92 696.986V112.783L1581.16 27.501V714.794Z" fill="url(#paint5_radial)"/>
<path d="M1283.66 783.412C1294.84 783.412 1303.91 771.619 1303.91 757.072C1303.91 742.525 1294.84 730.732 1283.66 730.732C1272.48 730.732 1263.41 742.525 1263.41 757.072C1263.41 771.619 1272.48 783.412 1283.66 783.412Z" fill="url(#paint6_radial)"/>
<path d="M1346.16 789.818C1357.34 789.818 1366.41 778.025 1366.41 763.478C1366.41 748.931 1357.34 737.138 1346.16 737.138C1334.98 737.138 1325.91 748.931 1325.91 763.478C1325.91 778.025 1334.98 789.818 1346.16 789.818Z" fill="url(#paint7_radial)"/>
<path d="M1163.73 115.328H455.747V786.74H1163.73V115.328Z" fill="url(#paint8_radial)"/>
<path d="M1130.38 749.117C1130.38 753.512 1126.82 757.074 1122.43 757.074H939.411C935.017 757.074 931.455 753.511 931.455 749.117V575.47C931.455 571.075 935.018 567.515 939.411 567.515H1122.43C1126.82 567.515 1130.38 571.076 1130.38 575.47V749.117Z" fill="url(#paint9_radial)"/>
<path d="M909.204 749.117C909.204 753.512 905.641 757.074 901.247 757.074H718.232C713.837 757.074 710.275 753.511 710.275 749.117V575.47C710.275 571.075 713.838 567.515 718.232 567.515H901.247C905.642 567.515 909.204 571.076 909.204 575.47V749.117Z" fill="url(#paint10_radial)"/>
<path d="M684.199 749.117C684.199 753.512 680.636 757.074 676.242 757.074H493.227C488.832 757.074 485.27 753.511 485.27 749.117V575.47C485.27 571.075 488.833 567.515 493.227 567.515H676.242C680.637 567.515 684.199 571.076 684.199 575.47V749.117V749.117Z" fill="url(#paint11_radial)"/>
<path d="M1131.3 539.884C1131.3 544.279 1127.74 547.841 1123.34 547.841H940.327C935.933 547.841 932.371 544.278 932.371 539.884V366.238C932.371 361.843 935.934 358.283 940.327 358.283H1123.34C1127.74 358.283 1131.3 361.844 1131.3 366.238V539.884Z" fill="url(#paint12_radial)"/>
<path d="M907.867 537.884C907.867 542.279 904.304 545.841 899.91 545.841H716.895C712.5 545.841 708.938 542.278 708.938 537.884V364.238C708.938 359.843 712.501 356.283 716.895 356.283H899.91C904.305 356.283 907.867 359.844 907.867 364.238V537.884Z" fill="url(#paint13_radial)"/>
<path d="M684.199 537.884C684.199 542.279 680.636 545.841 676.242 545.841H493.227C488.832 545.841 485.27 542.278 485.27 537.884V364.238C485.27 359.843 488.833 356.283 493.227 356.283H676.242C680.637 356.283 684.199 359.844 684.199 364.238V537.884V537.884Z" fill="url(#paint14_radial)"/>
<path d="M1130.38 328.24C1130.38 332.635 1126.82 336.197 1122.43 336.197H939.411C935.017 336.197 931.455 332.634 931.455 328.24V154.594C931.455 150.199 935.018 146.639 939.411 146.639H1122.43C1126.82 146.639 1130.38 150.2 1130.38 154.594V328.24Z" fill="url(#paint15_radial)"/>
<path d="M907.867 328.24C907.867 332.635 904.304 336.197 899.91 336.197H716.895C712.5 336.197 708.938 332.634 708.938 328.24V154.594C708.938 150.199 712.501 146.639 716.895 146.639H899.91C904.305 146.639 907.867 150.2 907.867 154.594V328.24Z" fill="url(#paint16_radial)"/>
<path d="M684.199 328.24C684.199 332.635 680.636 336.197 676.242 336.197H493.227C488.832 336.197 485.27 332.634 485.27 328.24V154.594C485.27 150.199 488.833 146.639 493.227 146.639H676.242C680.637 146.639 684.199 150.2 684.199 154.594V328.24V328.24Z" fill="url(#paint17_radial)"/>
<path d="M1183.11 304.886C1183.11 309.886 1179.05 313.941 1174.05 313.941H965.781C960.782 313.941 956.727 309.886 956.727 304.886V107.279C956.727 102.279 960.782 98.224 965.781 98.224H1174.05C1179.05 98.224 1183.11 102.279 1183.11 107.279V304.886Z" fill="url(#paint18_radial)"/>
<path d="M1444.96 899.636C1444.96 899.636 1403.37 878.116 1383.47 867.562H827.44H823.336H267.313C247.409 878.117 205.822 899.636 205.822 899.636L165.113 1001.7V1033.03H823.337H827.441H1485.67V1001.7L1444.96 899.636Z" fill="url(#paint19_linear)"/>
<path d="M1485.67 1001.7H165.11L205.82 899.636H1444.95L1485.67 1001.7Z" fill="url(#paint20_radial)"/>
<path d="M605.377 1026.62C605.377 1034.42 599.056 1040.74 591.258 1040.74H505.901C498.104 1040.74 491.782 1034.42 491.782 1026.62C491.782 1018.83 498.103 1012.5 505.901 1012.5H591.258C599.056 1012.5 605.377 1018.83 605.377 1026.62Z" fill="url(#paint21_linear)"/>
<path d="M642.202 1069.06C642.202 1076.86 635.881 1083.18 628.083 1083.18H542.726C537.336 1083.18 532.653 1080.16 530.274 1075.72C529.211 1073.74 499.314 1040.73 494.129 1034.41L628.083 1026.62C635.88 1026.62 642.202 1061.27 642.202 1069.06Z" fill="url(#paint22_linear)"/>
<path d="M1004.52 1026.62C1004.52 1034.42 1010.84 1040.74 1018.64 1040.74H1104C1111.8 1040.74 1118.12 1034.42 1118.12 1026.62C1118.12 1018.83 1111.8 1012.5 1104 1012.5H1018.64C1010.84 1012.5 1004.52 1018.83 1004.52 1026.62Z" fill="url(#paint23_linear)"/>
<path d="M967.699 1069.06C967.699 1076.86 974.019 1083.18 981.818 1083.18H1067.18C1072.56 1083.18 1077.25 1080.16 1079.63 1075.72C1080.69 1073.74 1110.59 1040.73 1115.77 1034.41L981.818 1026.62C974.02 1026.62 967.699 1061.27 967.699 1069.06Z" fill="url(#paint24_linear)"/>
<path opacity="0.5" d="M1454.99 988.787H1429.49L1400.41 913.863H1425.91L1454.99 988.787Z" fill="url(#paint25_radial)"/>
<path opacity="0.5" d="M1412.49 988.787H1358.24L1329.16 913.863H1383.41L1412.49 988.787Z" fill="url(#paint26_radial)"/>
<path opacity="0.5" d="M1340.16 988.787H1001.83L984.16 913.863H1311.08L1340.16 988.787Z" fill="url(#paint27_radial)"/>
<path opacity="0.5" d="M672.621 988.787H323.16L349.621 913.863H643.538L672.621 988.787Z" fill="url(#paint28_radial)"/>
<path opacity="0.5" d="M248.827 988.787H303.077L332.16 913.863H277.91L248.827 988.787Z" fill="url(#paint29_radial)"/>
<path opacity="0.5" d="M206.327 988.787H231.827L260.91 913.863H235.41L206.327 988.787Z" fill="url(#paint30_radial)"/>
<path d="M1444.95 899.636H205.82C205.82 899.636 247.41 878.116 267.31 867.568H1383.46C1403.37 878.117 1444.95 899.636 1444.95 899.636Z" fill="url(#paint31_radial)"/>
<path d="M360.152 881.125C360.31 886.182 339.288 890.941 313.196 891.76C287.104 892.574 265.825 889.137 265.667 884.08C265.509 879.023 286.531 874.264 312.623 873.447C338.715 872.63 359.994 876.068 360.152 881.125Z" fill="url(#paint32_radial)"/>
<path opacity="0.4" d="M312.414 820.55C267.77 821.837 231.803 829.31 232.076 837.255C232.35 845.183 268.746 850.583 313.406 849.296C358.05 848.023 394.017 840.55 393.744 832.607C393.47 824.662 357.074 819.277 312.414 820.55ZM313.27 844.019C280.947 844.947 254.579 841.054 254.39 835.308C254.202 829.546 280.228 824.144 312.552 823.218C344.876 822.292 371.243 826.202 371.432 831.948C371.636 837.693 345.593 843.095 313.27 844.019Z" fill="url(#paint33_radial)"/>
<path opacity="0.4" d="M312.289 779.203C256.476 780.373 211.509 787.156 211.851 794.371C212.194 801.57 257.696 806.475 313.531 805.305C369.344 804.149 414.312 797.366 413.97 790.153C413.627 782.937 368.125 778.05 312.289 779.203ZM313.279 798.833C280.061 799.524 252.963 796.618 252.769 792.331C252.576 788.03 279.323 783.999 312.541 783.308C345.759 782.617 372.857 785.535 373.051 789.824C373.262 794.111 346.498 798.142 313.279 798.833Z" fill="url(#paint34_radial)"/>
<path d="M1288.91 892.037H375.16L408.396 871.863H1260.73L1288.91 892.037Z" fill="url(#paint35_radial)"/>
<path d="M1295.58 881.125C1295.43 886.182 1316.45 890.941 1342.54 891.76C1368.63 892.574 1389.91 889.137 1390.07 884.08C1390.23 879.023 1369.2 874.264 1343.11 873.447C1317.02 872.63 1295.74 876.068 1295.58 881.125Z" fill="url(#paint36_radial)"/>
<path d="M878.244 719.296C868.612 715.241 858.573 713.759 830.965 713.759C828.197 713.759 799.364 713.779 796.312 713.814C793.26 713.779 790.315 713.759 787.547 713.759C759.939 713.759 749.901 715.241 740.267 719.296C694.129 760.441 678.575 777.499 683.151 824.417L702.609 931.819H720.67V984.774H795.486H797.137H897.841V931.819H915.902L935.361 824.417C939.937 777.5 924.383 760.441 878.244 719.296Z" fill="url(#paint37_linear)"/>
<path d="M852.862 658.375H775.468V733.273H852.862V658.375Z" fill="url(#paint38_linear)"/>
<path d="M876.498 552.83L765.09 557.848V528.916C765.09 528.916 786.604 515.621 812.317 515.621C838.03 515.621 859.544 528.916 859.544 528.916L876.498 552.83Z" fill="url(#paint39_linear)"/>
<path d="M740.1 640.693L763.401 653.175V570.372L736.899 583.921C736.899 583.921 733.789 588.761 735.086 611.775C736.383 634.787 740.1 640.693 740.1 640.693Z" fill="url(#paint40_linear)"/>
<path d="M815.518 524.365C770.113 524.365 744.236 564.441 744.236 564.441C744.236 564.441 737.131 580.763 740.065 617.3C742.999 653.837 747.437 656.29 747.437 656.29L775.469 690.374H851.011H852.864L879.636 685.13L899.728 669.392L898.713 632.681L893.15 622.634L888.349 579.782L891.549 577.163V564.405L883.015 555.87C883.014 555.871 860.923 524.365 815.518 524.365Z" fill="url(#paint41_linear)"/>
<path d="M888.348 579.783L893.148 622.634L885.682 622.781L880.502 584.552L888.348 579.783Z" fill="white"/>
<path d="M1082.52 647.185C1098.14 624.794 1100.18 601.05 1076.76 585.871C1058.63 574.127 1035.78 579.351 1020.17 601.744L907.6 753.796C891.987 776.187 897.482 806.995 919.874 822.61C942.264 838.223 973.073 832.729 988.687 810.34L1082.52 647.185Z" fill="url(#paint42_linear)"/>
<path d="M1013.31 806.449C1029.39 764.98 1008.81 718.33 967.34 702.254C925.871 686.174 879.219 706.754 863.142 748.223C847.062 789.692 867.642 836.342 909.11 852.418C950.577 868.5 997.229 847.917 1013.31 806.449Z" fill="url(#paint43_linear)"/>
<path opacity="0.2" d="M1006.48 749.453C1015.74 772.676 1009.82 796.857 993.249 803.467C976.677 810.078 955.739 796.613 946.475 773.393C937.213 750.176 943.136 725.995 959.706 719.385C976.271 712.773 997.215 726.238 1006.48 749.453Z" stroke="white" stroke-width="4" stroke-miterlimit="10" stroke-linecap="round"/>
<path d="M1133.8 481.482C1140.39 452.832 1122.51 424.259 1093.86 417.66C1065.2 411.068 1036.63 428.943 1030.03 457.596L995.291 604.209C988.695 632.857 1006.58 661.43 1035.23 668.022C1063.88 674.624 1092.45 656.739 1099.05 628.092L1133.8 481.482Z" fill="url(#paint44_linear)"/>
<path d="M1057.29 410.41C1057.3 416.971 1062.63 422.279 1069.2 422.267C1075.76 422.253 1081.08 416.921 1081.06 410.353L1080.98 373.882C1080.97 369.802 1083.97 343.536 1083.97 343.536L1071.34 345.27L1057.21 373.934L1057.29 410.41Z" fill="url(#paint45_linear)"/>
<path d="M1071.68 369.285C1070.21 375 1073.66 380.818 1079.38 382.285C1085.08 383.752 1090.9 380.306 1092.37 374.594L1100.52 342.848C1101.99 337.137 1098.54 331.319 1092.83 329.852C1087.12 328.383 1081.29 331.831 1079.83 337.541L1071.68 369.285Z" fill="url(#paint46_linear)"/>
<path d="M1076.54 351.806C1075.37 358.009 1079.45 363.978 1085.65 365.148C1091.85 366.312 1096.93 362.425 1098.1 356.226L1104.3 323.831C1106.12 313.563 1106.57 292.19 1100.85 291.034C1095.14 289.878 1092.43 289.329 1092.43 289.329C1092.43 289.329 1084.79 312.798 1084.06 316.794C1083.31 320.862 1083.34 320.733 1082.75 323.86L1076.54 351.806Z" fill="url(#paint47_linear)"/>
<path d="M1059.8 407.328C1055.74 422.191 1061.07 436.41 1073.65 440.029C1107.71 446.467 1126.09 419.449 1130.14 404.582L1133.64 374.045C1136.1 355.359 1135.7 344 1123.99 340.805C1123.99 340.805 1114.94 344.895 1102.46 350.364C1089.99 355.831 1072.31 361.479 1068.25 376.346L1059.8 407.328Z" fill="url(#paint48_linear)"/>
<path d="M1091.11 371.361C1090.06 377.166 1093.92 382.72 1099.73 383.769C1105.53 384.816 1111.09 380.962 1112.13 375.156L1117.96 342.908C1118.48 340.008 1115.26 333.209 1115.26 333.209L1102.26 330.393C1102.26 330.393 1097.99 333.303 1096.94 339.112L1091.11 371.361Z" fill="url(#paint49_linear)"/>
<path d="M1101.95 378.382C1100.17 384.007 1103.29 390.009 1108.91 391.786C1114.53 393.563 1120.54 390.442 1122.31 384.823L1132.2 353.573C1133.97 347.952 1130.85 341.948 1125.23 340.173C1119.6 338.394 1113.6 341.509 1111.83 347.134L1101.95 378.382Z" fill="url(#paint50_linear)"/>
<path d="M1087.02 422.453C1088.73 422.453 1090.1 421.074 1090.1 419.373C1090.1 417.672 1088.73 416.293 1087.02 416.293C1085.32 416.293 1083.95 417.672 1083.95 419.373C1083.95 421.074 1085.32 422.453 1087.02 422.453Z" fill="white"/>
<path d="M521.373 895.484C505.712 901.996 498.291 919.966 504.8 935.629C511.309 951.291 529.281 958.713 544.944 952.203L568.499 942.705C584.161 936.199 591.579 918.225 585.07 902.566C578.563 886.9 560.589 879.482 544.928 885.99L521.373 895.484Z" fill="url(#paint51_linear)"/>
<path d="M570.958 936.064C559.564 960.869 561.766 984.601 587.516 995.382C607.44 1003.73 628.994 994.527 640.385 969.722L724.19 800.107C735.582 775.3 724.707 745.955 699.9 734.562C675.094 723.169 645.748 734.042 634.355 758.849L570.958 936.064Z" fill="url(#paint52_linear)"/>
<path d="M578.145 920.886C552.305 906.861 519.988 916.435 505.961 942.275C491.934 968.119 501.509 1000.44 527.349 1014.46L565.817 1035.87C591.653 1049.9 623.971 1040.32 637.993 1014.48C652.027 988.644 642.445 956.326 616.608 942.3L578.145 920.886Z" fill="url(#paint53_linear)"/>
<path d="M689.563 860.806C734.038 860.806 770.093 824.751 770.093 780.276C770.093 735.801 734.038 699.746 689.563 699.746C645.087 699.746 609.033 735.801 609.033 780.276C609.033 824.751 645.087 860.806 689.563 860.806Z" fill="url(#paint54_linear)"/>
<path opacity="0.2" d="M633.446 722.529C632.244 730.759 628.771 743.961 623.76 758.533C618.577 773.603 613 786.5 608.836 793.597" stroke="white" stroke-width="4" stroke-miterlimit="10" stroke-linecap="round"/>
<path d="M1020.66 956.857V1379.13H601.244V956.857C601.244 870.011 671.662 799.582 758.519 799.582H863.373C950.242 799.582 1020.66 870.011 1020.66 956.857Z" fill="url(#paint55_radial)"/>
<path d="M875.998 964.404L809.468 1096.9L742.977 964.38L773.525 964.386L809.478 1036.05L845.447 964.4L875.998 964.404Z" fill="white"/>
<defs>
<radialGradient id="paint0_radial" cx="0" cy="0" r="1" gradientUnits="userSpaceOnUse" gradientTransform="translate(765.977 926.819) scale(1491.16)">
<stop stop-color="#7EFFFF"/>
<stop offset="1" stop-color="#3984FF" stop-opacity="0"/>
</radialGradient>
<radialGradient id="paint1_radial" cx="0" cy="0" r="1" gradientUnits="userSpaceOnUse" gradientTransform="translate(831.161 840.787) scale(1628.04 1628.05)">
<stop stop-color="#7EFFFF"/>
<stop offset="1" stop-color="#3984FF" stop-opacity="0"/>
</radialGradient>
<radialGradient id="paint2_radial" cx="0" cy="0" r="1" gradientUnits="userSpaceOnUse" gradientTransform="translate(637.67 747.792) scale(1628.04 1628.04)">
<stop stop-color="#7EFFFF"/>
<stop offset="1" stop-color="#3984FF" stop-opacity="0"/>
</radialGradient>
<radialGradient id="paint3_radial" cx="0" cy="0" r="1" gradientUnits="userSpaceOnUse" gradientTransform="translate(577.161 790.785) scale(1628.04 1628.04)">
<stop stop-color="#7EFFFF"/>
<stop offset="1" stop-color="#3984FF" stop-opacity="0"/>
</radialGradient>
<radialGradient id="paint4_radial" cx="0" cy="0" r="1" gradientUnits="userSpaceOnUse" gradientTransform="translate(1009 875.813) scale(1476.79)">
<stop stop-color="#7EFFFF"/>
<stop offset="1" stop-color="#3984FF" stop-opacity="0"/>
</radialGradient>
<radialGradient id="paint5_radial" cx="0" cy="0" r="1" gradientUnits="userSpaceOnUse" gradientTransform="translate(1033.16 828.788) scale(1628.04)">
<stop stop-color="#7EFFFF"/>
<stop offset="1" stop-color="#3984FF" stop-opacity="0"/>
</radialGradient>
<radialGradient id="paint6_radial" cx="0" cy="0" r="1" gradientUnits="userSpaceOnUse" gradientTransform="translate(1109.16 846.785) scale(1628.05 1628.04)">
<stop stop-color="#7EFFFF"/>
<stop offset="1" stop-color="#3984FF" stop-opacity="0"/>
</radialGradient>
<radialGradient id="paint7_radial" cx="0" cy="0" r="1" gradientUnits="userSpaceOnUse" gradientTransform="translate(1123.16 858.786) scale(1628.04 1628.04)">
<stop stop-color="#7EFFFF"/>
<stop offset="1" stop-color="#3984FF" stop-opacity="0"/>
</radialGradient>
<radialGradient id="paint8_radial" cx="0" cy="0" r="1" gradientUnits="userSpaceOnUse" gradientTransform="translate(815.98 801.816) scale(1537.23)">
<stop stop-color="#7EFFFF"/>
<stop offset="1" stop-color="#3984FF" stop-opacity="0"/>
</radialGradient>
<radialGradient id="paint9_radial" cx="0" cy="0" r="1" gradientUnits="userSpaceOnUse" gradientTransform="translate(831.16 840.788) scale(1628.05 1628.05)">
<stop stop-color="#7EFFFF"/>
<stop offset="1" stop-color="#3984FF" stop-opacity="0"/>
</radialGradient>
<radialGradient id="paint10_radial" cx="0" cy="0" r="1" gradientUnits="userSpaceOnUse" gradientTransform="translate(831.16 840.788) scale(1628.04)">
<stop stop-color="#7EFFFF"/>
<stop offset="1" stop-color="#3984FF" stop-opacity="0"/>
</radialGradient>
<radialGradient id="paint11_radial" cx="0" cy="0" r="1" gradientUnits="userSpaceOnUse" gradientTransform="translate(831.16 840.788) scale(1628.04)">
<stop stop-color="#7EFFFF"/>
<stop offset="1" stop-color="#3984FF" stop-opacity="0"/>
</radialGradient>
<radialGradient id="paint12_radial" cx="0" cy="0" r="1" gradientUnits="userSpaceOnUse" gradientTransform="translate(831.161 840.786) scale(1628.04 1628.04)">
<stop stop-color="#7EFFFF"/>
<stop offset="1" stop-color="#3984FF" stop-opacity="0"/>
</radialGradient>
<radialGradient id="paint13_radial" cx="0" cy="0" r="1" gradientUnits="userSpaceOnUse" gradientTransform="translate(831.16 840.787) scale(1628.04)">
<stop stop-color="#7EFFFF"/>
<stop offset="1" stop-color="#3984FF" stop-opacity="0"/>
</radialGradient>
<radialGradient id="paint14_radial" cx="0" cy="0" r="1" gradientUnits="userSpaceOnUse" gradientTransform="translate(816.161 728.293) scale(1628.05)">
<stop stop-color="#7EFFFF"/>
<stop offset="1" stop-color="#3984FF" stop-opacity="0"/>
</radialGradient>
<radialGradient id="paint15_radial" cx="0" cy="0" r="1" gradientUnits="userSpaceOnUse" gradientTransform="translate(887.16 796.789) scale(1644.69 1644.68)">
<stop stop-color="#7EFFFF"/>
<stop offset="1" stop-color="#3984FF" stop-opacity="0"/>
</radialGradient>
<radialGradient id="paint16_radial" cx="0" cy="0" r="1" gradientUnits="userSpaceOnUse" gradientTransform="translate(797.16 662.788) scale(1628.04)">
<stop stop-color="#7EFFFF"/>
<stop offset="1" stop-color="#3984FF" stop-opacity="0"/>
</radialGradient>
<radialGradient id="paint17_radial" cx="0" cy="0" r="1" gradientUnits="userSpaceOnUse" gradientTransform="translate(831.16 840.789) scale(1628.05)">
<stop stop-color="#7EFFFF"/>
<stop offset="1" stop-color="#3984FF" stop-opacity="0"/>
</radialGradient>
<radialGradient id="paint18_radial" cx="0" cy="0" r="1" gradientUnits="userSpaceOnUse" gradientTransform="translate(904.322 472.091) scale(1871.64 1871.64)">
<stop stop-color="#7EFFFF"/>
<stop offset="1" stop-color="#3984FF" stop-opacity="0"/>
</radialGradient>
<linearGradient id="paint19_linear" x1="825.389" y1="786.697" x2="825.389" y2="1184.35" gradientUnits="userSpaceOnUse">
<stop stop-color="#1E3250"/>
<stop offset="1" stop-color="#080117"/>
</linearGradient>
<radialGradient id="paint20_radial" cx="0" cy="0" r="1" gradientUnits="userSpaceOnUse" gradientTransform="translate(771.16 258.786) scale(1260.46 1260.46)">
<stop stop-color="#00BBFF"/>
<stop offset="1" stop-color="#080117" stop-opacity="0"/>
</radialGradient>
<linearGradient id="paint21_linear" x1="548.58" y1="915.122" x2="548.58" y2="1328.31" gradientUnits="userSpaceOnUse">
<stop stop-color="#1E3250"/>
<stop offset="1" stop-color="#080117"/>
</linearGradient>
<linearGradient id="paint22_linear" x1="568.166" y1="915.124" x2="568.166" y2="1328.31" gradientUnits="userSpaceOnUse">
<stop stop-color="#1E3250"/>
<stop offset="1" stop-color="#080117"/>
</linearGradient>
<linearGradient id="paint23_linear" x1="1061.32" y1="915.122" x2="1061.32" y2="1328.31" gradientUnits="userSpaceOnUse">
<stop stop-color="#1E3250"/>
<stop offset="1" stop-color="#080117"/>
</linearGradient>
<linearGradient id="paint24_linear" x1="1041.74" y1="915.124" x2="1041.74" y2="1328.31" gradientUnits="userSpaceOnUse">
<stop stop-color="#1E3250"/>
<stop offset="1" stop-color="#080117"/>
</linearGradient>
<radialGradient id="paint25_radial" cx="0" cy="0" r="1" gradientUnits="userSpaceOnUse" gradientTransform="translate(819.979 657.946) scale(1495.72 1837.2)">
<stop stop-color="#008BFF"/>
<stop offset="1" stop-color="#080117" stop-opacity="0"/>
</radialGradient>
<radialGradient id="paint26_radial" cx="0" cy="0" r="1" gradientUnits="userSpaceOnUse" gradientTransform="translate(819.981 657.946) scale(1495.72 1837.19)">
<stop stop-color="#008BFF"/>
<stop offset="1" stop-color="#080117" stop-opacity="0"/>
</radialGradient>
<radialGradient id="paint27_radial" cx="0" cy="0" r="1" gradientUnits="userSpaceOnUse" gradientTransform="translate(819.98 657.946) scale(1495.72 1837.19)">
<stop stop-color="#008BFF"/>
<stop offset="1" stop-color="#080117" stop-opacity="0"/>
</radialGradient>
<radialGradient id="paint28_radial" cx="0" cy="0" r="1" gradientUnits="userSpaceOnUse" gradientTransform="translate(819.98 657.946) scale(1495.68 1837.14)">
<stop stop-color="#008BFF"/>
<stop offset="1" stop-color="#080117" stop-opacity="0"/>
</radialGradient>
<radialGradient id="paint29_radial" cx="0" cy="0" r="1" gradientUnits="userSpaceOnUse" gradientTransform="translate(-144.226 657.946) rotate(180) scale(1495.71 1837.18)">
<stop stop-color="#008BFF"/>
<stop offset="1" stop-color="#080117" stop-opacity="0"/>
</radialGradient>
<radialGradient id="paint30_radial" cx="0" cy="0" r="1" gradientUnits="userSpaceOnUse" gradientTransform="translate(-144.227 657.946) rotate(180) scale(1495.71 1837.18)">
<stop stop-color="#008BFF"/>
<stop offset="1" stop-color="#080117" stop-opacity="0"/>
</radialGradient>
<radialGradient id="paint31_radial" cx="0" cy="0" r="1" gradientUnits="userSpaceOnUse" gradientTransform="translate(825.385 883.602) scale(1627.31)">
<stop stop-color="#00BBFF"/>
<stop offset="1" stop-color="#080117" stop-opacity="0"/>
</radialGradient>
<radialGradient id="paint32_radial" cx="0" cy="0" r="1" gradientUnits="userSpaceOnUse" gradientTransform="translate(831.16 868.788) scale(3732.09 3732.09)">
<stop stop-color="#00BBFF"/>
<stop offset="1" stop-color="#080117" stop-opacity="0"/>
</radialGradient>
<radialGradient id="paint33_radial" cx="0" cy="0" r="1" gradientUnits="userSpaceOnUse" gradientTransform="translate(1199.66 813.238) scale(6385.8 5858.97)">
<stop stop-color="#00BBFF"/>
<stop offset="1" stop-color="#080117" stop-opacity="0"/>
</radialGradient>
<radialGradient id="paint34_radial" cx="0" cy="0" r="1" gradientUnits="userSpaceOnUse" gradientTransform="translate(1421.54 772.565) scale(7983.62 5319.49)">
<stop stop-color="#00BBFF"/>
<stop offset="1" stop-color="#080117" stop-opacity="0"/>
</radialGradient>
<radialGradient id="paint35_radial" cx="0" cy="0" r="1" gradientUnits="userSpaceOnUse" gradientTransform="translate(832.035 868.787) scale(3724.97 3724.96)">
<stop stop-color="#00BBFF"/>
<stop offset="1" stop-color="#080117" stop-opacity="0"/>
</radialGradient>
<radialGradient id="paint36_radial" cx="0" cy="0" r="1" gradientUnits="userSpaceOnUse" gradientTransform="translate(1849.16 868.788) rotate(180) scale(3732.1 3732.1)">
<stop stop-color="#00BBFF"/>
<stop offset="1" stop-color="#080117" stop-opacity="0"/>
</radialGradient>
<linearGradient id="paint37_linear" x1="809.256" y1="89.0737" x2="809.256" y2="1107.59" gradientUnits="userSpaceOnUse">
<stop stop-color="#004A7D"/>
<stop offset="1" stop-color="#080117"/>
</linearGradient>
<linearGradient id="paint38_linear" x1="814.166" y1="77.6034" x2="814.166" y2="1096.14" gradientUnits="userSpaceOnUse">
<stop stop-color="#004A7D"/>
<stop offset="1" stop-color="#080117"/>
</linearGradient>
<linearGradient id="paint39_linear" x1="820.794" y1="426.273" x2="820.794" y2="700.523" gradientUnits="userSpaceOnUse">
<stop stop-color="#004A7D"/>
<stop offset="1" stop-color="#080117"/>
</linearGradient>
<linearGradient id="paint40_linear" x1="749.085" y1="193.609" x2="749.085" y2="1212.13" gradientUnits="userSpaceOnUse">
<stop stop-color="#004A7D"/>
<stop offset="1" stop-color="#080117"/>
</linearGradient>
<linearGradient id="paint41_linear" x1="819.54" y1="173.103" x2="819.54" y2="1251.29" gradientUnits="userSpaceOnUse">
<stop stop-color="#004A7D"/>
<stop offset="1" stop-color="#080117"/>
</linearGradient>
<linearGradient id="paint42_linear" x1="851.424" y1="1163.7" x2="1110.64" y2="331.649" gradientUnits="userSpaceOnUse">
<stop stop-color="#004A7D"/>
<stop offset="1" stop-color="#080117"/>
</linearGradient>
<linearGradient id="paint43_linear" x1="938.224" y1="452.789" x2="938.224" y2="940.771" gradientUnits="userSpaceOnUse">
<stop stop-color="#004A7D"/>
<stop offset="1" stop-color="#080117"/>
</linearGradient>
<linearGradient id="paint44_linear" x1="1064.54" y1="23.4654" x2="1064.54" y2="1041.99" gradientUnits="userSpaceOnUse">
<stop stop-color="#004A7D"/>
<stop offset="1" stop-color="#080117"/>
</linearGradient>
<linearGradient id="paint45_linear" x1="1068.26" y1="258.794" x2="1075.68" y2="629.607" gradientUnits="userSpaceOnUse">
<stop stop-color="#004A7D"/>
<stop offset="1" stop-color="#080117"/>
</linearGradient>
<linearGradient id="paint46_linear" x1="1084.15" y1="258.477" x2="1091.56" y2="629.294" gradientUnits="userSpaceOnUse">
<stop stop-color="#004A7D"/>
<stop offset="1" stop-color="#080117"/>
</linearGradient>
<linearGradient id="paint47_linear" x1="1089.01" y1="420.265" x2="1094.57" y2="164.282" gradientUnits="userSpaceOnUse">
<stop stop-color="#004A7D"/>
<stop offset="1" stop-color="#080117"/>
</linearGradient>
<linearGradient id="paint48_linear" x1="1094.06" y1="258.282" x2="1101.48" y2="629.093" gradientUnits="userSpaceOnUse">
<stop stop-color="#004A7D"/>
<stop offset="1" stop-color="#080117"/>
</linearGradient>
<linearGradient id="paint49_linear" x1="1089.79" y1="258.939" x2="1144.27" y2="625.845" gradientUnits="userSpaceOnUse">
<stop stop-color="#004A7D"/>
<stop offset="1" stop-color="#080117"/>
</linearGradient>
<linearGradient id="paint50_linear" x1="1114.91" y1="257.865" x2="1122.32" y2="628.675" gradientUnits="userSpaceOnUse">
<stop stop-color="#004A7D"/>
<stop offset="1" stop-color="#080117"/>
</linearGradient>
<linearGradient id="paint51_linear" x1="573.268" y1="773.895" x2="531.412" y2="988.389" gradientUnits="userSpaceOnUse">
<stop stop-color="#004A7D"/>
<stop offset="1" stop-color="#080117"/>
</linearGradient>
<linearGradient id="paint52_linear" x1="646.556" y1="193.348" x2="646.556" y2="1211.87" gradientUnits="userSpaceOnUse">
<stop stop-color="#004A7D"/>
<stop offset="1" stop-color="#080117"/>
</linearGradient>
<linearGradient id="paint53_linear" x1="955.923" y1="314.069" x2="446.256" y2="1195.9" gradientUnits="userSpaceOnUse">
<stop stop-color="#004A7D"/>
<stop offset="1" stop-color="#080117"/>
</linearGradient>
<linearGradient id="paint54_linear" x1="689.563" y1="452.785" x2="689.563" y2="940.773" gradientUnits="userSpaceOnUse">
<stop stop-color="#004A7D"/>
<stop offset="1" stop-color="#080117"/>
</linearGradient>
<radialGradient id="paint55_radial" cx="0" cy="0" r="1" gradientUnits="userSpaceOnUse" gradientTransform="translate(813.819 -49.0141) scale(1425.25)">
<stop stop-color="#65FFC7"/>
<stop offset="0.0997" stop-color="#4DD6B6"/>
<stop offset="0.3231" stop-color="#116D8A"/>
<stop offset="0.3839" stop-color="#00507E"/>
<stop offset="0.5384" stop-color="#00426A"/>
<stop offset="0.837" stop-color="#002C49"/>
<stop offset="1" stop-color="#00233C"/>
</radialGradient>
</defs>
</svg>
