<svg width="3097" height="1154" viewBox="0 0 3097 1154" fill="none" xmlns="http://www.w3.org/2000/svg">
<path d="M587.96 213.404C589.801 213.404 591.294 211.912 591.294 210.07C591.294 208.229 589.801 206.736 587.96 206.736C586.119 206.736 584.626 208.229 584.626 210.07C584.626 211.912 586.119 213.404 587.96 213.404Z" fill="white"/>
<path d="M1942.87 447.66C1944.71 447.66 1946.21 446.167 1946.21 444.326C1946.21 442.485 1944.71 440.992 1942.87 440.992C1941.03 440.992 1939.54 442.485 1939.54 444.326C1939.54 446.167 1941.03 447.66 1942.87 447.66Z" fill="white"/>
<path d="M1075.85 215.195C1077.69 215.195 1079.18 213.703 1079.18 211.861C1079.18 210.02 1077.69 208.527 1075.85 208.527C1074.01 208.527 1072.51 210.02 1072.51 211.861C1072.51 213.703 1074.01 215.195 1075.85 215.195Z" fill="white"/>
<path d="M563.83 238C564.998 238 565.945 237.053 565.945 235.885C565.945 234.717 564.998 233.77 563.83 233.77C562.662 233.77 561.715 234.717 561.715 235.885C561.715 237.053 562.662 238 563.83 238Z" fill="white"/>
<path d="M700.749 320.535C702.45 320.535 703.829 319.156 703.829 317.455C703.829 315.754 702.45 314.375 700.749 314.375C699.048 314.375 697.669 315.754 697.669 317.455C697.669 319.156 699.048 320.535 700.749 320.535Z" fill="white"/>
<path d="M1838 469.493C1839.7 469.493 1841.08 468.114 1841.08 466.413C1841.08 464.712 1839.7 463.333 1838 463.333C1836.3 463.333 1834.92 464.712 1834.92 466.413C1834.92 468.114 1836.3 469.493 1838 469.493Z" fill="white"/>
<path d="M2975.04 68.0863C2976.75 68.0863 2978.12 66.7073 2978.12 65.0063C2978.12 63.3052 2976.75 61.9263 2975.04 61.9263C2973.34 61.9263 2971.96 63.3052 2971.96 65.0063C2971.96 66.7073 2973.34 68.0863 2975.04 68.0863Z" fill="white"/>
<path d="M3027.58 79.8454C3028.64 79.8454 3029.5 78.9858 3029.5 77.9254C3029.5 76.865 3028.64 76.0054 3027.58 76.0054C3026.52 76.0054 3025.66 76.865 3025.66 77.9254C3025.66 78.9858 3026.52 79.8454 3027.58 79.8454Z" fill="white"/>
<path d="M2374.69 352.047C2375.75 352.047 2376.61 351.187 2376.61 350.127C2376.61 349.067 2375.75 348.207 2374.69 348.207C2373.63 348.207 2372.77 349.067 2372.77 350.127C2372.77 351.187 2373.63 352.047 2374.69 352.047Z" fill="white"/>
<path d="M202.822 328.836C203.883 328.836 204.742 327.976 204.742 326.916C204.742 325.856 203.883 324.996 202.822 324.996C201.762 324.996 200.902 325.856 200.902 326.916C200.902 327.976 201.762 328.836 202.822 328.836Z" fill="white"/>
<path d="M1352.49 292.291C1353.55 292.291 1354.41 291.432 1354.41 290.371C1354.41 289.311 1353.55 288.451 1352.49 288.451C1351.43 288.451 1350.57 289.311 1350.57 290.371C1350.57 291.432 1351.43 292.291 1352.49 292.291Z" fill="white"/>
<path d="M2892.32 122.3C2893.19 122.3 2893.9 121.596 2893.9 120.727C2893.9 119.859 2893.19 119.154 2892.32 119.154C2891.45 119.154 2890.75 119.859 2890.75 120.727C2890.75 121.596 2891.45 122.3 2892.32 122.3Z" fill="white"/>
<path d="M1969.72 499.077C1970.59 499.077 1971.29 498.373 1971.29 497.504C1971.29 496.635 1970.59 495.931 1969.72 495.931C1968.85 495.931 1968.15 496.635 1968.15 497.504C1968.15 498.373 1968.85 499.077 1969.72 499.077Z" fill="white"/>
<path d="M2475.64 78.4761C2476.17 78.4761 2476.59 78.0516 2476.59 77.5281C2476.59 77.0045 2476.17 76.5801 2475.64 76.5801C2475.12 76.5801 2474.69 77.0045 2474.69 77.5281C2474.69 78.0516 2475.12 78.4761 2475.64 78.4761Z" fill="white"/>
<path d="M2536.29 337.023C2536.81 337.023 2537.24 336.599 2537.24 336.075C2537.24 335.551 2536.81 335.127 2536.29 335.127C2535.77 335.127 2535.34 335.551 2535.34 336.075C2535.34 336.599 2535.77 337.023 2536.29 337.023Z" fill="white"/>
<path d="M2813.45 94.5063C2813.97 94.5063 2814.4 94.0819 2814.4 93.5583C2814.4 93.0348 2813.97 92.6104 2813.45 92.6104C2812.92 92.6104 2812.5 93.0348 2812.5 93.5583C2812.5 94.0819 2812.92 94.5063 2813.45 94.5063Z" fill="white"/>
<path d="M2838.42 227.405C2838.94 227.405 2839.36 226.981 2839.36 226.457C2839.36 225.934 2838.94 225.509 2838.42 225.509C2837.89 225.509 2837.47 225.934 2837.47 226.457C2837.47 226.981 2837.89 227.405 2838.42 227.405Z" fill="white"/>
<path d="M1672.34 122.796C1672.87 122.796 1673.29 122.371 1673.29 121.848C1673.29 121.324 1672.87 120.9 1672.34 120.9C1671.82 120.9 1671.39 121.324 1671.39 121.848C1671.39 122.371 1671.82 122.796 1672.34 122.796Z" fill="white"/>
<path d="M3095.57 162.808C3096.1 162.808 3096.52 162.384 3096.52 161.86C3096.52 161.337 3096.1 160.912 3095.57 160.912C3095.05 160.912 3094.62 161.337 3094.62 161.86C3094.62 162.384 3095.05 162.808 3095.57 162.808Z" fill="white"/>
<path d="M2910.24 139.102C2910.76 139.102 2911.19 138.678 2911.19 138.154C2911.19 137.631 2910.76 137.206 2910.24 137.206C2909.71 137.206 2909.29 137.631 2909.29 138.154C2909.29 138.678 2909.71 139.102 2910.24 139.102Z" fill="white"/>
<path d="M2829.71 35.2449C2831.41 35.2449 2832.79 33.866 2832.79 32.1649C2832.79 30.4639 2831.41 29.085 2829.71 29.085C2828.01 29.085 2826.63 30.4639 2826.63 32.1649C2826.63 33.866 2828.01 35.2449 2829.71 35.2449Z" fill="white"/>
<path d="M2252.77 43.7943C2254.47 43.7943 2255.85 42.4153 2255.85 40.7143C2255.85 39.0132 2254.47 37.6343 2252.77 37.6343C2251.07 37.6343 2249.69 39.0132 2249.69 40.7143C2249.69 42.4153 2251.07 43.7943 2252.77 43.7943Z" fill="white"/>
<path d="M746.773 276.958C748.474 276.958 749.853 275.579 749.853 273.878C749.853 272.177 748.474 270.798 746.773 270.798C745.072 270.798 743.693 272.177 743.693 273.878C743.693 275.579 745.072 276.958 746.773 276.958Z" fill="white"/>
<path d="M694.238 262.878C695.299 262.878 696.158 262.018 696.158 260.958C696.158 259.898 695.299 259.038 694.238 259.038C693.178 259.038 692.318 259.898 692.318 260.958C692.318 262.018 693.178 262.878 694.238 262.878Z" fill="white"/>
<path d="M423.365 4.41714C424.426 4.41714 425.285 3.55753 425.285 2.49715C425.285 1.43676 424.426 0.577148 423.365 0.577148C422.305 0.577148 421.445 1.43676 421.445 2.49715C421.445 3.55753 422.305 4.41714 423.365 4.41714Z" fill="white"/>
<path d="M2624.32 21.5412C2625.38 21.5412 2626.24 20.6816 2626.24 19.6212C2626.24 18.5608 2625.38 17.7012 2624.32 17.7012C2623.26 17.7012 2622.4 18.5608 2622.4 19.6212C2622.4 20.6816 2623.26 21.5412 2624.32 21.5412Z" fill="white"/>
<path d="M2546.69 100.539C2547.75 100.539 2548.61 99.6796 2548.61 98.6192C2548.61 97.5588 2547.75 96.6992 2546.69 96.6992C2545.62 96.6992 2544.77 97.5588 2544.77 98.6192C2544.77 99.6796 2545.62 100.539 2546.69 100.539Z" fill="white"/>
<path d="M636.366 36.498C637.235 36.498 637.939 35.7938 637.939 34.925C637.939 34.0563 637.235 33.3521 636.366 33.3521C635.497 33.3521 634.793 34.0563 634.793 34.925C634.793 35.7938 635.497 36.498 636.366 36.498Z" fill="white"/>
<path d="M1670.47 47.6531C1670.47 46.7841 1671.17 46.0791 1672.04 46.0791C1672.91 46.0791 1673.61 46.7841 1673.61 47.6531C1673.61 48.5191 1672.91 49.2251 1672.04 49.2251C1671.17 49.2251 1670.47 48.5201 1670.47 47.6531Z" fill="white"/>
<path d="M411.763 265.349C412.287 265.349 412.712 264.925 412.712 264.401C412.712 263.878 412.287 263.453 411.763 263.453C411.24 263.453 410.815 263.878 410.815 264.401C410.815 264.925 411.24 265.349 411.763 265.349Z" fill="white"/>
<path d="M261.769 17.498C262.293 17.498 262.717 17.0736 262.717 16.55C262.717 16.0265 262.293 15.6021 261.769 15.6021C261.246 15.6021 260.821 16.0265 260.821 16.55C260.821 17.0736 261.246 17.498 261.769 17.498Z" fill="white"/>
<path d="M908.37 246.273C908.893 246.273 909.318 245.849 909.318 245.325C909.318 244.801 908.893 244.377 908.37 244.377C907.846 244.377 907.422 244.801 907.422 245.325C907.422 245.849 907.846 246.273 908.37 246.273Z" fill="white"/>
<path d="M2357.29 137.079C2357.81 137.079 2358.24 136.655 2358.24 136.131C2358.24 135.608 2357.81 135.183 2357.29 135.183C2356.76 135.183 2356.34 135.608 2356.34 136.131C2356.34 136.655 2356.76 137.079 2357.29 137.079Z" fill="white"/>
<path d="M2761.99 440.738C2763.69 440.738 2765.07 439.359 2765.07 437.658C2765.07 435.957 2763.69 434.578 2761.99 434.578C2760.29 434.578 2758.91 435.957 2758.91 437.658C2758.91 439.359 2760.29 440.738 2761.99 440.738Z" fill="white"/>
<path d="M1739.24 174.366C1740.94 174.366 1742.32 172.987 1742.32 171.286C1742.32 169.585 1740.94 168.206 1739.24 168.206C1737.54 168.206 1736.16 169.585 1736.16 171.286C1736.16 172.987 1737.54 174.366 1739.24 174.366Z" fill="white"/>
<path d="M988.399 63.814C989.268 63.814 989.972 63.1097 989.972 62.241C989.972 61.3722 989.268 60.668 988.399 60.668C987.53 60.668 986.826 61.3722 986.826 62.241C986.826 63.1097 987.53 63.814 988.399 63.814Z" fill="white"/>
<path d="M1760.24 529.698C1760.76 529.698 1761.19 529.274 1761.19 528.75C1761.19 528.227 1760.76 527.802 1760.24 527.802C1759.72 527.802 1759.29 528.227 1759.29 528.75C1759.29 529.274 1759.72 529.698 1760.24 529.698Z" fill="white"/>
<path d="M2249.34 174.191C2249.87 174.191 2250.29 173.766 2250.29 173.243C2250.29 172.719 2249.87 172.295 2249.34 172.295C2248.82 172.295 2248.39 172.719 2248.39 173.243C2248.39 173.766 2248.82 174.191 2249.34 174.191Z" fill="white"/>
<path d="M541.825 95.9453C542.349 95.9453 542.773 95.5209 542.773 94.9973C542.773 94.4737 542.349 94.0493 541.825 94.0493C541.301 94.0493 540.877 94.4737 540.877 94.9973C540.877 95.5209 541.301 95.9453 541.825 95.9453Z" fill="white"/>
<path d="M618.45 18.4453C618.974 18.4453 619.398 18.0209 619.398 17.4973C619.398 16.9737 618.974 16.5493 618.45 16.5493C617.926 16.5493 617.502 16.9737 617.502 17.4973C617.502 18.0209 617.926 18.4453 618.45 18.4453Z" fill="white"/>
<path d="M1559.3 311.283C1561 311.283 1562.38 309.904 1562.38 308.203C1562.38 306.502 1561 305.123 1559.3 305.123C1557.6 305.123 1556.22 306.502 1556.22 308.203C1556.22 309.904 1557.6 311.283 1559.3 311.283Z" fill="white"/>
<path d="M2691.2 240.44C2692.26 240.44 2693.12 239.58 2693.12 238.52C2693.12 237.46 2692.26 236.6 2691.2 236.6C2690.14 236.6 2689.28 237.46 2689.28 238.52C2689.28 239.58 2690.14 240.44 2691.2 240.44Z" fill="white"/>
<path d="M2491.01 267.65C2491.01 268.519 2490.31 269.225 2489.44 269.225C2488.57 269.225 2487.87 268.519 2487.87 267.65C2487.87 266.783 2488.57 266.079 2489.44 266.079C2490.31 266.079 2491.01 266.783 2491.01 267.65Z" fill="white"/>
<path d="M1521.69 296.598C1522.21 296.598 1522.64 296.174 1522.64 295.65C1522.64 295.127 1522.21 294.702 1521.69 294.702C1521.16 294.702 1520.74 295.127 1520.74 295.65C1520.74 296.174 1521.16 296.598 1521.69 296.598Z" fill="white"/>
<path d="M961.74 70.0054C962.264 70.0054 962.688 69.581 962.688 69.0574C962.688 68.5338 962.264 68.1094 961.74 68.1094C961.216 68.1094 960.792 68.5338 960.792 69.0574C960.792 69.581 961.216 70.0054 961.74 70.0054Z" fill="white"/>
<path d="M2777.31 328.405C2777.84 328.405 2778.26 327.981 2778.26 327.457C2778.26 326.934 2777.84 326.509 2777.31 326.509C2776.79 326.509 2776.37 326.934 2776.37 327.457C2776.37 327.981 2776.79 328.405 2777.31 328.405Z" fill="white"/>
<path d="M401.22 130.877C402.921 130.877 404.3 129.498 404.3 127.797C404.3 126.096 402.921 124.717 401.22 124.717C399.519 124.717 398.14 126.096 398.14 127.797C398.14 129.498 399.519 130.877 401.22 130.877Z" fill="white"/>
<path d="M1346.9 136.799C1371.51 136.799 1391.47 116.843 1391.47 92.2258C1391.47 67.6088 1371.51 47.6528 1346.9 47.6528C1322.28 47.6528 1302.32 67.6088 1302.32 92.2258C1302.32 116.843 1322.28 136.799 1346.9 136.799Z" fill="url(#paint0_radial)"/>
<path d="M1436.5 169.431C1449.04 169.431 1459.21 159.266 1459.21 146.726C1459.21 134.186 1449.04 124.021 1436.5 124.021C1423.96 124.021 1413.79 134.186 1413.79 146.726C1413.79 159.266 1423.96 169.431 1436.5 169.431Z" fill="url(#paint1_radial)"/>
<path d="M1997.52 1153.55H0.210938V391.783L578 534.262L630.868 655.329L1710.93 796.525L1813.3 994.303H1895.01L1997.52 1153.55Z" fill="url(#paint2_linear)"/>
<path opacity="0.2" d="M2066.65 986.721L2038.93 1009.07L2032.77 1103.76H2069.69L2085.43 1019.09L2066.65 986.721Z" fill="url(#paint3_radial)"/>
<path opacity="0.3" d="M1996.56 1024.82L2024.28 1047.17L2029.4 1103.76H1980.67L1977.79 1057.19L1996.56 1024.82Z" fill="url(#paint4_radial)"/>
<path d="M2518.58 631.72V1076.57H2437.32V613.943L2457.63 598.706H2499.11L2518.58 631.72Z" fill="url(#paint5_linear)"/>
<path d="M2168.97 559.765H2127.49L2107.18 575.001V1104.55H2188.44V580.081L2168.97 559.765Z" fill="url(#paint6_linear)"/>
<path d="M2537.11 476.805V525.336L2526.95 538.599H2100.87L2090.15 519.129V479.626L2101.72 457.336H2521.87L2537.11 476.805Z" fill="url(#paint7_linear)"/>
<defs>
<radialGradient id="paint0_radial" cx="0" cy="0" r="1" gradientUnits="userSpaceOnUse" gradientTransform="translate(1578.85 1414.74) scale(1414.07)">
<stop stop-color="#65FFDB"/>
<stop offset="0.1499" stop-color="#40D6C8"/>
<stop offset="0.3839" stop-color="#008EA7"/>
<stop offset="0.4148" stop-color="#0087A0"/>
<stop offset="0.6864" stop-color="#00516A"/>
<stop offset="0.8896" stop-color="#003049"/>
<stop offset="1" stop-color="#00233C"/>
</radialGradient>
<radialGradient id="paint1_radial" cx="0" cy="0" r="1" gradientUnits="userSpaceOnUse" gradientTransform="translate(1496.58 704.579) scale(633.657 633.655)">
<stop stop-color="#65FFDB"/>
<stop offset="0.1499" stop-color="#40D6C8"/>
<stop offset="0.3839" stop-color="#008EA7"/>
<stop offset="0.4148" stop-color="#0087A0"/>
<stop offset="0.6864" stop-color="#00516A"/>
<stop offset="0.8896" stop-color="#003049"/>
<stop offset="1" stop-color="#00233C"/>
</radialGradient>
<linearGradient id="paint2_linear" x1="998.868" y1="1189.27" x2="998.868" y2="-3.85817" gradientUnits="userSpaceOnUse">
<stop stop-color="#B5FFDA"/>
<stop offset="0.0966" stop-color="#8CE5CE"/>
<stop offset="0.3131" stop-color="#23A4B1"/>
<stop offset="0.3839" stop-color="#008EA7"/>
<stop offset="0.6459" stop-color="#00607C"/>
<stop offset="0.8753" stop-color="#003F5C"/>
<stop offset="1" stop-color="#003250"/>
</linearGradient>
<radialGradient id="paint3_radial" cx="0" cy="0" r="1" gradientUnits="userSpaceOnUse" gradientTransform="translate(2074.05 967.744) scale(720.27 720.271)">
<stop stop-color="#00A77F"/>
<stop offset="1" stop-color="#080117"/>
</radialGradient>
<radialGradient id="paint4_radial" cx="0" cy="0" r="1" gradientUnits="userSpaceOnUse" gradientTransform="translate(2015.63 967.744) rotate(180) scale(720.27 720.271)">
<stop stop-color="#00A77F"/>
<stop offset="1" stop-color="#080117"/>
</radialGradient>
<linearGradient id="paint5_linear" x1="2477.95" y1="1189.27" x2="2477.95" y2="-3.86268" gradientUnits="userSpaceOnUse">
<stop stop-color="#B5FFDA"/>
<stop offset="0.0966" stop-color="#8CE5CE"/>
<stop offset="0.3131" stop-color="#23A4B1"/>
<stop offset="0.3839" stop-color="#008EA7"/>
<stop offset="0.6459" stop-color="#00607C"/>
<stop offset="0.8753" stop-color="#003F5C"/>
<stop offset="1" stop-color="#003250"/>
</linearGradient>
<linearGradient id="paint6_linear" x1="2147.81" y1="1189.27" x2="2147.81" y2="-3.86278" gradientUnits="userSpaceOnUse">
<stop stop-color="#B5FFDA"/>
<stop offset="0.0966" stop-color="#8CE5CE"/>
<stop offset="0.3131" stop-color="#23A4B1"/>
<stop offset="0.3839" stop-color="#008EA7"/>
<stop offset="0.6459" stop-color="#00607C"/>
<stop offset="0.8753" stop-color="#003F5C"/>
<stop offset="1" stop-color="#003250"/>
</linearGradient>
<linearGradient id="paint7_linear" x1="2313.63" y1="1189.27" x2="2313.63" y2="-3.8624" gradientUnits="userSpaceOnUse">
<stop stop-color="#B5FFDA"/>
<stop offset="0.0966" stop-color="#8CE5CE"/>
<stop offset="0.3131" stop-color="#23A4B1"/>
<stop offset="0.3839" stop-color="#008EA7"/>
<stop offset="0.6459" stop-color="#00607C"/>
<stop offset="0.8753" stop-color="#003F5C"/>
<stop offset="1" stop-color="#003250"/>
</linearGradient>
</defs>
</svg>
